HIERARCHY
ROOT Hips
{
	OFFSET 0.000000 83.214638 0.000000
	CHANNELS 6 Xposition Yposition Zposition Xrotation Yrotation Zrotation
	JOINT Pelvis
	{
		OFFSET 0.000000 0.000000 0.000000
		CHANNELS 3 Xrotation Yrotation Zrotation
		JOINT LeftUpLeg
		{
			OFFSET 8.479700 -4.795502 -0.379100
			CHANNELS 3 Xrotation Yrotation Zrotation
			JOINT LeftLeg
			{
				OFFSET 0.024144 -32.555107 0.112900
				CHANNELS 3 Xrotation Yrotation Zrotation
				JOINT LeftFoot
				{
					OFFSET -0.024144 -32.638630 -3.012600
					CHANNELS 3 Xrotation Yrotation Zrotation
					JOINT LeftToeBase
					{
						OFFSET 0.970200 -13.225400 11.864200
						CHANNELS 3 Xrotation Yrotation Zrotation
						End Site
						{
							OFFSET 0.000000 12.319262 0.000000
						}
					}
					JOINT LFootTongue
					{
						OFFSET 1.142400 -1.059800 6.665200
						CHANNELS 3 Xrotation Yrotation Zrotation
						End Site
						{
							OFFSET 0.000000 12.319262 0.000000
						}
					}
				}
				JOINT LeftPantLeg
				{
					OFFSET 0.918482 -16.533964 -2.284700
					CHANNELS 3 Xrotation Yrotation Zrotation
					End Site
					{
						OFFSET 0.350399 24.744368 0.000000
					}
				}
			}
		}
		JOINT RightUpLeg
		{
			OFFSET -8.479700 -4.795502 -0.379100
			CHANNELS 3 Xrotation Yrotation Zrotation
			JOINT RightLeg
			{
				OFFSET -0.023144 -32.555092 0.112900
				CHANNELS 3 Xrotation Yrotation Zrotation
				JOINT RightFoot
				{
					OFFSET 0.023144 -32.638641 -3.012700
					CHANNELS 3 Xrotation Yrotation Zrotation
					JOINT RightToeBase
					{
						OFFSET -0.970200 -13.225400 11.864200
						CHANNELS 3 Xrotation Yrotation Zrotation
						End Site
						{
							OFFSET 0.000000 12.319244 0.000000
						}
					}
					JOINT RFootTongue
					{
						OFFSET -1.142200 -1.059800 6.665200
						CHANNELS 3 Xrotation Yrotation Zrotation
						End Site
						{
							OFFSET 0.000000 12.319243 0.000000
						}
					}
				}
				JOINT RightPantLeg
				{
					OFFSET -0.919482 -16.533978 -2.284800
					CHANNELS 3 Xrotation Yrotation Zrotation
					End Site
					{
						OFFSET -0.350400 24.744419 0.000000
					}
				}
			}
		}
	}
	JOINT Spine
	{
		OFFSET 0.000000 7.722000 1.166200
		CHANNELS 3 Xrotation Yrotation Zrotation
		JOINT Spine1
		{
			OFFSET 0.000000 12.024101 0.248800
			CHANNELS 3 Xrotation Yrotation Zrotation
			JOINT Spine2
			{
				OFFSET 0.000000 11.502998 -0.491200
				CHANNELS 3 Xrotation Yrotation Zrotation
				JOINT Neck
				{
					OFFSET 0.000000 18.430702 -3.123100
					CHANNELS 3 Xrotation Yrotation Zrotation
					JOINT Head
					{
						OFFSET 0.000000 9.051102 1.034000
						CHANNELS 3 Xrotation Yrotation Zrotation
						JOINT HairB
						{
							OFFSET 0.208400 24.786102 24.822300
							CHANNELS 3 Xrotation Yrotation Zrotation
							End Site
							{
								OFFSET 0.000000 32.263779 0.000000
							}
						}
						JOINT HairA
						{
							OFFSET -7.081100 24.428299 23.196600
							CHANNELS 3 Xrotation Yrotation Zrotation
							End Site
							{
								OFFSET 0.000000 32.263779 0.000000
							}
						}
						JOINT Hat
						{
							OFFSET 16.728800 15.048294 -15.439601
							CHANNELS 3 Xrotation Yrotation Zrotation
							End Site
							{
								OFFSET 0.000000 32.263779 0.000000
							}
						}
					}
				}
				JOINT LeftShoulder
				{
					OFFSET 6.197800 13.665199 -4.064700
					CHANNELS 3 Xrotation Yrotation Zrotation
					JOINT LeftArm
					{
						OFFSET 7.778100 -0.187103 -1.709300
						CHANNELS 3 Xrotation Yrotation Zrotation
						JOINT LeftForeArm
						{
							OFFSET 22.049376 0.000000 0.000000
							CHANNELS 3 Xrotation Yrotation Zrotation
							JOINT LeftHand
							{
								OFFSET 23.009392 0.000000 0.000000
								CHANNELS 3 Xrotation Yrotation Zrotation
								JOINT LeftHandThumb1
								{
									OFFSET 3.507191 -2.063065 3.133727
									CHANNELS 3 Xrotation Yrotation Zrotation
									JOINT LeftHandThumb2
									{
										OFFSET 3.101337 -1.790558 1.790558
										CHANNELS 3 Xrotation Yrotation Zrotation
										JOINT LeftHandThumb3
										{
											OFFSET 3.058640 -1.765907 1.765906
											CHANNELS 3 Xrotation Yrotation Zrotation
											End Site
											{
												OFFSET -0.415260 3.926476 -0.049563
											}
										}
									}
								}
								JOINT LeftHandIndex1
								{
									OFFSET 11.334419 -0.901459 3.706815
									CHANNELS 3 Xrotation Yrotation Zrotation
									JOINT LeftHandIndex2
									{
										OFFSET 3.283112 0.000000 0.000000
										CHANNELS 3 Xrotation Yrotation Zrotation
										JOINT LeftHandIndex3
										{
											OFFSET 3.323853 0.000000 0.000000
											CHANNELS 3 Xrotation Yrotation Zrotation
											End Site
											{
												OFFSET -1.135597 3.097809 0.402452
											}
										}
									}
								}
								JOINT LeftHandMiddle1
								{
									OFFSET 11.335861 0.000000 0.000000
									CHANNELS 3 Xrotation Yrotation Zrotation
									JOINT LeftHandMiddle2
									{
										OFFSET 3.410492 0.000000 0.000000
										CHANNELS 3 Xrotation Yrotation Zrotation
										JOINT LeftHandMiddle3
										{
											OFFSET 3.312172 0.000000 0.000000
											CHANNELS 3 Xrotation Yrotation Zrotation
											End Site
											{
												OFFSET -1.150200 3.080154 0.400270
											}
										}
									}
								}
								JOINT LeftHandRing1
								{
									OFFSET 11.514786 -0.013176 -3.003090
									CHANNELS 3 Xrotation Yrotation Zrotation
									JOINT LeftHandRing2
									{
										OFFSET 3.053307 0.000000 0.000000
										CHANNELS 3 Xrotation Yrotation Zrotation
										JOINT LeftHandRing3
										{
											OFFSET 3.295807 0.000000 0.000000
											CHANNELS 3 Xrotation Yrotation Zrotation
											End Site
											{
												OFFSET -1.281006 3.013344 0.375733
											}
										}
									}
								}
								JOINT LeftHandPinky1
								{
									OFFSET 10.518692 -0.960396 -5.730441
									CHANNELS 3 Xrotation Yrotation Zrotation
									JOINT LeftHandPinky2
									{
										OFFSET 2.861649 0.000000 0.000000
										CHANNELS 3 Xrotation Yrotation Zrotation
										JOINT LeftHandPinky3
										{
											OFFSET 2.863380 0.000000 0.000000
											CHANNELS 3 Xrotation Yrotation Zrotation
											End Site
											{
												OFFSET -0.843597 2.711159 0.369971
											}
										}
									}
								}
							}
							JOINT LSleeve
							{
								OFFSET 6.676277 -0.344902 -1.011730
								CHANNELS 3 Xrotation Yrotation Zrotation
								End Site
								{
									OFFSET 0.000000 14.885353 0.000000
								}
							}
						}
					}
				}
				JOINT RightShoulder
				{
					OFFSET -6.197800 13.665199 -4.064700
					CHANNELS 3 Xrotation Yrotation Zrotation
					JOINT RightArm
					{
						OFFSET -7.778100 -0.187103 -1.709300
						CHANNELS 3 Xrotation Yrotation Zrotation
						JOINT RightForeArm
						{
							OFFSET -22.049376 0.000000 0.000000
							CHANNELS 3 Xrotation Yrotation Zrotation
							JOINT RightHand
							{
								OFFSET -23.009392 0.000000 0.000000
								CHANNELS 3 Xrotation Yrotation Zrotation
								JOINT RightHandThumb1
								{
									OFFSET -3.507191 -2.063065 3.133727
									CHANNELS 3 Xrotation Yrotation Zrotation
									JOINT RightHandThumb2
									{
										OFFSET -3.101337 -1.790558 1.790558
										CHANNELS 3 Xrotation Yrotation Zrotation
										JOINT RightHandThumb3
										{
											OFFSET -3.058640 -1.765907 1.765906
											CHANNELS 3 Xrotation Yrotation Zrotation
											End Site
											{
												OFFSET 0.415260 3.926476 -0.049563
											}
										}
									}
								}
								JOINT RightHandIndex1
								{
									OFFSET -11.334419 -0.901459 3.706815
									CHANNELS 3 Xrotation Yrotation Zrotation
									JOINT RightHandIndex2
									{
										OFFSET -3.283112 0.000000 0.000000
										CHANNELS 3 Xrotation Yrotation Zrotation
										JOINT RightHandIndex3
										{
											OFFSET -3.323853 0.000000 0.000000
											CHANNELS 3 Xrotation Yrotation Zrotation
											End Site
											{
												OFFSET 1.135597 3.097809 0.402452
											}
										}
									}
								}
								JOINT RightHandMiddle1
								{
									OFFSET -11.335861 0.000000 0.000000
									CHANNELS 3 Xrotation Yrotation Zrotation
									JOINT RightHandMiddle2
									{
										OFFSET -3.410492 0.000000 0.000000
										CHANNELS 3 Xrotation Yrotation Zrotation
										JOINT RightHandMiddle3
										{
											OFFSET -3.312172 0.000000 0.000000
											CHANNELS 3 Xrotation Yrotation Zrotation
											End Site
											{
												OFFSET 1.150200 3.080154 0.400270
											}
										}
									}
								}
								JOINT RightHandRing1
								{
									OFFSET -11.514786 -0.013176 -3.003090
									CHANNELS 3 Xrotation Yrotation Zrotation
									JOINT RightHandRing2
									{
										OFFSET -3.053307 0.000000 0.000000
										CHANNELS 3 Xrotation Yrotation Zrotation
										JOINT RightHandRing3
										{
											OFFSET -3.295807 0.000000 0.000000
											CHANNELS 3 Xrotation Yrotation Zrotation
											End Site
											{
												OFFSET 1.281006 3.013344 0.375733
											}
										}
									}
								}
								JOINT RightHandPinky1
								{
									OFFSET -10.518692 -0.960396 -5.730441
									CHANNELS 3 Xrotation Yrotation Zrotation
									JOINT RightHandPinky2
									{
										OFFSET -2.861649 0.000000 0.000000
										CHANNELS 3 Xrotation Yrotation Zrotation
										JOINT RightHandPinky3
										{
											OFFSET -2.863380 0.000000 0.000000
											CHANNELS 3 Xrotation Yrotation Zrotation
											End Site
											{
												OFFSET 0.843597 2.711159 0.369971
											}
										}
									}
								}
							}
							JOINT RSleeve
							{
								OFFSET -6.676277 -0.344902 -1.011730
								CHANNELS 3 Xrotation Yrotation Zrotation
								End Site
								{
									OFFSET 0.000000 14.885353 0.000000
								}
							}
						}
					}
				}
				JOINT Backpack
				{
					OFFSET 0.000000 -2.471497 36.677502
					CHANNELS 3 Xrotation Yrotation Zrotation
					End Site
					{
						OFFSET 0.000000 20.427315 0.000000
					}
				}
				JOINT Hood
				{
					OFFSET 0.000000 18.754097 -10.431000
					CHANNELS 3 Xrotation Yrotation Zrotation
					JOINT Hood1
					{
						OFFSET 0.000000 -5.011002 -7.685901
						CHANNELS 3 Xrotation Yrotation Zrotation
						End Site
						{
							OFFSET 0.000000 9.175140 0.000000
						}
					}
				}
				JOINT LHoodieString
				{
					OFFSET 5.250500 16.397697 3.089900
					CHANNELS 3 Xrotation Yrotation Zrotation
					JOINT LHoodieString1
					{
						OFFSET 0.257700 -6.364304 3.694600
						CHANNELS 3 Xrotation Yrotation Zrotation
						JOINT LHoodieString2
						{
							OFFSET 0.000000 -9.643799 2.679100
							CHANNELS 3 Xrotation Yrotation Zrotation
							End Site
							{
								OFFSET 0.000000 10.009018 0.000000
							}
						}
					}
				}
				JOINT RHoodieString
				{
					OFFSET -5.250500 16.397697 3.089900
					CHANNELS 3 Xrotation Yrotation Zrotation
					JOINT RHoodieString1
					{
						OFFSET -0.257700 -6.364304 3.694600
						CHANNELS 3 Xrotation Yrotation Zrotation
						JOINT RHoodieString2
						{
							OFFSET 0.000000 -9.643799 2.679100
							CHANNELS 3 Xrotation Yrotation Zrotation
							End Site
							{
								OFFSET 0.000000 10.009018 0.000000
							}
						}
					}
				}
			}
			JOINT LBackpack_Strap
			{
				OFFSET 15.223200 -7.719803 -6.610900
				CHANNELS 3 Xrotation Yrotation Zrotation
				End Site
				{
					OFFSET 0.000000 16.040596 0.000000
				}
			}
			JOINT RBackpack_Strap
			{
				OFFSET -15.223000 -7.719803 -6.610900
				CHANNELS 3 Xrotation Yrotation Zrotation
				End Site
				{
					OFFSET 0.000000 16.040596 0.000000
				}
			}
		}
	}
	JOINT BoyFacialAnim_Joint
	{
		OFFSET 1.000000 -82.208099 -1.550900
		CHANNELS 3 Xrotation Yrotation Zrotation
		End Site
		{
			OFFSET 0.000000 30.012791 0.000000
		}
	}
}
MOTION
Frames: 4
Frame Time: 0.033333
0.677280 82.409386 -0.551614 -4.262155 2.014847 -3.613099 -0.000000 0.000000 0.000000 -12.033172 14.331007 11.168438 13.874015 2.197731 4.084176 1.140634 0.628402 -7.214502 0.000000 0.000002 -0.000000 0.000000 0.000002 0.000000 0.000000 -0.000003 -0.000000 1.285199 -10.162240 3.496422 6.299957 -9.501697 -3.343460 -3.126508 -1.801973 3.484185 0.000000 -0.000001 -0.000000 0.000000 -0.000001 -0.000000 0.000000 -0.000001 0.000000 3.127648 1.528887 2.351430 0.927798 0.339886 1.405718 0.902045 0.363265 1.407816 6.379461 -0.470656 1.493699 -5.642534 -1.258617 3.467932 -0.000000 0.000000 0.000000 -0.000000 0.000000 0.000000 -0.000000 0.000000 0.000000 0.925302 -17.157287 -13.199602 4.570670 -19.020506 -67.783439 0.000000 -1.166639 -0.000012 -32.790427 -1.122487 -6.421041 -0.502460 2.164382 4.747130 11.839813 25.416660 17.102153 -0.000000 -0.000001 -0.000001 0.032796 -0.934453 -7.662426 0.267543 1.751852 -17.365023 0.000000 0.000001 0.000000 -0.066266 2.708755 -15.780737 0.268710 1.755576 -17.403143 0.000000 -0.000001 -0.000002 0.125696 3.615679 -21.200091 0.386282 2.093906 -20.902687 -0.000000 0.000001 0.000001 0.929338 5.567708 -27.130596 0.265819 1.746334 -17.308521 -0.000000 0.000000 0.000001 0.000002 -0.000000 0.000001 1.266781 14.952870 14.369477 11.957125 26.259963 60.751350 -0.000005 6.378851 -0.000011 -19.846489 -0.148723 6.212106 -2.014100 -0.082072 -4.548733 12.902955 -29.888030 -15.591269 -0.000002 0.000001 0.000000 0.059714 1.565031 6.004646 0.211732 -1.389703 17.325697 0.000002 0.000000 0.000002 -0.148951 -2.065222 14.045027 0.213962 -1.396797 17.417008 0.000005 -0.000001 0.000001 0.038788 -3.056172 19.491591 0.306695 -1.663724 20.888583 0.000001 0.000000 -0.000001 0.714496 -4.900926 25.178792 0.209055 -1.381106 17.214921 -0.000002 0.000003 0.000001 0.000002 0.000000 0.000000 -0.000000 -0.000000 0.000000 -0.000000 -0.000000 0.000000 -0.000000 -0.000000 0.000000 -0.000000 -0.000000 0.000000 -0.000000 -0.000000 -0.000000 0.000000 -0.000000 0.000000 -0.000000 -0.000000 0.000000 -0.000000 -0.000000 -0.000000 0.000000 -0.000000 0.000000 0.000000 -0.000001 -0.000000 0.000000 -0.000001 -0.000000 -0.000000 0.000000 0.000000 
0.709185 82.401993 -0.589312 -4.350963 2.056167 -3.597281 -0.000000 -0.000000 -0.000000 -12.002862 14.312515 11.128509 13.952020 2.170732 4.087631 1.121300 0.639567 -7.177967 0.000000 0.000002 -0.000000 0.000000 0.000002 -0.000000 -0.000000 -0.000002 -0.000000 1.267756 -10.182630 3.451969 6.474011 -9.494668 -3.348035 -3.235483 -1.817450 3.483901 -0.000000 0.000000 -0.000000 -0.000000 0.000000 -0.000000 -0.000000 -0.000000 0.000000 3.111040 1.533468 2.355644 0.905818 0.346420 1.409621 0.879983 0.369634 1.411731 6.291138 -0.465233 1.864358 -5.521356 -1.409557 4.739897 -0.000000 -0.000000 -0.000000 -0.000000 -0.000000 -0.000000 -0.000000 -0.000000 -0.000000 0.926379 -17.132403 -13.187787 4.726694 -18.983056 -67.819995 -0.000004 -1.165012 -0.000002 -32.764086 -1.063305 -6.443536 -0.477666 2.145430 4.723869 11.834081 25.414543 17.120402 0.000000 -0.000001 0.000002 0.035116 -0.924570 -7.685567 0.267536 1.751826 -17.364776 0.000000 0.000001 -0.000002 -0.063525 2.719145 -15.788377 0.268479 1.754826 -17.395474 0.000000 -0.000001 -0.000002 0.135925 3.642043 -21.198967 0.386523 2.094544 -20.909325 -0.000001 -0.000000 -0.000000 0.933660 5.575603 -27.157449 0.265992 1.746873 -17.314077 0.000000 0.000000 0.000001 0.000001 0.000000 -0.000001 1.253817 14.920606 14.442297 11.973502 25.938350 60.626521 0.000009 6.255166 -0.000005 -19.647782 -0.197877 6.150156 -2.058488 -0.131968 -4.593884 12.907568 -29.889516 -15.578336 -0.000003 -0.000001 -0.000002 0.061434 1.571844 5.965538 0.211453 -1.388795 17.313853 -0.000001 0.000000 0.000002 -0.153095 -2.047964 14.039277 0.213993 -1.396893 17.418184 0.000004 -0.000001 0.000001 0.036476 -3.049983 19.499075 0.307022 -1.664570 20.899891 -0.000001 0.000001 -0.000001 0.713732 -4.897831 25.176617 0.210215 -1.384819 17.262632 0.000002 -0.000001 0.000002 -0.000001 0.000000 0.000001 -0.000000 -0.000000 0.000000 -0.000000 -0.000000 0.000000 -0.000000 -0.000000 0.000000 -0.000000 -0.000000 0.000000 -0.000000 -0.000000 -0.000000 -0.000000 -0.000000 -0.000000 -0.000000 -0.000000 0.000000 -0.000000 -0.000000 -0.000000 -0.000000 -0.000000 -0.000000 -0.000000 0.000000 0.000000 -0.000000 0.000000 0.000000 -0.000000 -0.000000 -0.000000 
0.743243 82.395096 -0.624642 -4.428817 2.093251 -3.579424 0.000000 -0.000000 0.000000 -11.977335 14.293205 11.085035 14.026403 2.144294 4.087658 1.100590 0.651158 -7.139102 -0.000000 -0.000000 -0.000000 -0.000000 -0.000000 0.000000 -0.000000 -0.000000 -0.000001 1.231829 -10.200039 3.395012 6.656497 -9.485533 -3.352053 -3.321378 -1.835379 3.521736 -0.000000 0.000000 -0.000000 -0.000000 0.000000 -0.000000 -0.000000 0.000001 -0.000000 3.091134 1.535299 2.359146 0.880398 0.348845 1.414573 0.854513 0.371920 1.416619 6.200221 -0.466854 2.257002 -5.264452 -1.577020 6.079778 -0.000000 0.000000 0.000000 -0.000000 0.000000 0.000000 -0.000000 0.000000 0.000000 0.922657 -17.098248 -13.211036 4.873508 -18.963742 -67.871747 0.000009 -1.173809 -0.000001 -32.776493 -1.023734 -6.438449 -0.444099 2.128085 4.696523 11.824207 25.410872 17.151780 0.000002 -0.000002 -0.000001 0.037600 -0.913831 -7.710807 0.267525 1.751794 -17.364450 0.000001 -0.000000 -0.000000 -0.062838 2.722450 -15.798745 0.268644 1.755354 -17.400885 0.000001 -0.000002 -0.000000 0.147954 3.673186 -21.200733 0.386871 2.095443 -20.918750 -0.000001 -0.000001 -0.000000 0.939198 5.585525 -27.174652 0.266037 1.747028 -17.315663 -0.000000 -0.000000 0.000001 -0.000001 0.000000 -0.000002 1.241832 14.893060 14.509731 11.959891 25.599628 60.500764 0.000003 6.147511 0.000004 -19.497533 -0.250925 6.077364 -2.118814 -0.151910 -4.640407 12.919153 -29.893187 -15.545748 -0.000000 0.000004 0.000004 0.064711 1.573975 5.916023 0.212345 -1.391645 17.350542 -0.000001 -0.000000 0.000002 -0.157282 -2.027879 14.008020 0.213949 -1.396754 17.416344 0.000002 0.000000 0.000002 0.030715 -3.033358 19.492486 0.307513 -1.665833 20.916315 -0.000000 -0.000002 -0.000003 0.714355 -4.899424 25.143122 0.211198 -1.387982 17.303395 -0.000005 0.000003 -0.000003 0.000001 -0.000000 0.000000 0.000000 0.000000 0.000000 0.000000 0.000000 0.000000 0.000000 0.000000 0.000000 0.000000 0.000000 0.000000 0.000000 0.000000 0.000000 -0.000000 0.000000 0.000000 0.000000 0.000000 0.000000 0.000000 0.000000 0.000000 -0.000000 0.000000 0.000000 -0.000000 0.000000 0.000000 -0.000000 0.000000 0.000000 0.000000 -0.000000 0.000000 
0.779048 82.388596 -0.657689 -4.498857 2.131623 -3.561266 0.000000 0.000000 -0.000000 -11.956107 14.273734 11.039293 14.098217 2.112731 4.086213 1.078768 0.662233 -7.098120 -0.000000 0.000000 -0.000000 -0.000000 0.000000 0.000000 -0.000000 0.000001 -0.000000 1.194315 -10.217207 3.336624 6.828729 -9.484411 -3.357655 -3.403848 -1.853391 3.562932 -0.000000 -0.000002 -0.000000 -0.000000 -0.000002 -0.000000 -0.000000 -0.000000 -0.000000 3.071034 1.535473 2.362182 0.855497 0.348732 1.418966 0.829573 0.371694 1.420908 6.120327 -0.476018 2.678975 -4.957127 -1.767559 7.496113 0.000000 -0.000000 -0.000000 0.000000 -0.000000 -0.000000 0.000000 -0.000000 -0.000000 0.917052 -17.072164 -13.250130 4.987138 -18.943285 -67.948081 -0.000006 -1.185431 0.000004 -32.795170 -0.995715 -6.408167 -0.425589 2.129384 4.686575 11.819551 25.409137 17.166583 0.000000 -0.000002 -0.000001 0.040804 -0.905133 -7.720277 0.267516 1.751763 -17.364124 -0.000000 0.000001 -0.000000 -0.062853 2.723567 -15.813029 0.268991 1.756470 -17.412304 0.000002 -0.000001 -0.000000 0.151798 3.683683 -21.214702 0.387029 2.095859 -20.923089 -0.000001 0.000000 -0.000002 0.940042 5.587796 -27.180792 0.265897 1.746581 -17.311073 -0.000000 0.000001 -0.000004 -0.000005 -0.000000 -0.000001 1.231513 14.875672 14.567687 11.943469 25.288340 60.360130 0.000003 6.067862 -0.000030 -19.404916 -0.310421 6.012011 -2.152541 -0.151078 -4.655361 12.924068 -29.894761 -15.531942 -0.000001 0.000004 0.000005 0.065922 1.563496 5.917097 0.212976 -1.393653 17.376498 -0.000003 0.000001 0.000002 -0.157925 -2.026117 14.016490 0.213842 -1.396395 17.411742 0.000004 -0.000002 0.000001 0.023945 -3.015034 19.510847 0.307612 -1.666138 20.920320 -0.000001 -0.000001 -0.000001 0.715539 -4.900147 25.161643 0.210843 -1.386807 17.288293 0.000003 -0.000000 0.000000 0.000003 -0.000000 0.000001 -0.000000 0.000000 -0.000000 -0.000000 0.000000 -0.000000 -0.000000 0.000000 -0.000000 -0.000000 0.000000 -0.000000 -0.000000 0.000000 -0.000000 -0.000000 0.000000 0.000000 -0.000000 0.000000 -0.000000 -0.000000 0.000000 -0.000000 -0.000000 0.000000 0.000000 -0.000000 0.000000 -0.000000 -0.000000 0.000000 -0.000000 0.000000 0.000000 -0.000000 
